<?xml version="1.0" encoding="UTF-8"?><svg id="a" xmlns="http://www.w3.org/2000/svg" viewBox="0 0 700 630"><rect width="700" height="630" opacity="0"/><path d="M208.146,65.142v52.18c0,.55-.45,1-1,1h-29.37c-.15-.33-.28-.66-.41-1h-58.52v-52.18h16.05v21.08h35.44l5.91,16.05,3.25-7.57,9.96,10.21,5.27-5.28-10.27-9.88,7.63-3.32-14.04-5.18v-16.11h2.67c.18-.34,.37-.67,.57-1h25.86c.55,0,1,.45,1,1Z" fill="#eafaeb"/><path d="M297.466,94.852c0,34.33-27.83,62.15-62.15,62.15-26.02,0-48.29-15.99-57.54-38.68h29.37c.55,0,1-.45,1-1v-52.18c0-.55-.45-1-1-1h-25.86c10.68-18.78,30.87-31.44,54.03-31.44,34.32,0,62.15,27.83,62.15,62.15Z" fill="#cef2cf"/><path d="M208.351,269.877v58.107H110.201l3.456-27.672-41.331-12.78-17.068,5.105h0l-25.665,7.676,7.442,48.559,.745,.973c-.155,2.362-.242,4.743-.242,7.144,0,59.436,48.183,107.619,107.619,107.619,8.373,0,16.523-.957,24.346-2.766l23.462-59.956,56.88-19.875c1.912-8.03,2.931-16.407,2.931-25.022,0-35.822-17.506-67.55-44.425-87.111Z" fill="#c6d4f4"/><path d="M110.786,328.227l-1.5,20.01c0,.01-1.01,.02-1.01,.03,0,.02-.01,.03-.01,.05-.02,.11-.06,.21-.12,.3,0,.01,0,.03-.01,.04s-.02,.01-.02,.02c-.01,.02-.02,.03-.03,.05l-35.27,46.07c-.01,.01-.03,.02-.04,.04-.07,.07-.14,.12-.22,.17-.04,.03-.07,.06-.12,.08-.11,.05-.22,.07-.34,.08-.03,0-.05,.02-.07,.02s-.04-.01-.06-.02c-.12,0-.24-.03-.35-.08-.05-.02-.08-.05-.12-.08-.08-.05-.15-.1-.22-.17-.01-.02-.03-.03-.04-.04l-33.85-44.17c.03-.51,.06-1.03,.09-1.54l-.74-.97-7.44-48.56,25.66-7.68,17.07-5.1,41.33,12.78-3.46,27.67,.89,1Z" fill="#dfecfc"/><circle cx="533.413" cy="198.473" r="80.344" fill="#eee0fa"/><rect x="525.436" y="173.671" width="171.459" height="104.947" fill="#fff"/><rect x="525.458" y="201.129" width="171.436" height="34.976" fill="#eee0fa"/><path d="M524.874,128.303c-.133-.106-16.053-60.039-16.053-60.039l-1.063-3.98-14.97,62.798-17.381,12.55,10.956,5.56-3.13,4.589,16.539,1.397,7.044-6.948,2.373,4.261,3.042-5.277,13.193,6.195,23.139-2.551-23.688-18.555Z" fill="#fff"/><polygon points="184.453 89.747 192.088 86.432 178.047 81.256 178.047 52.304 134.895 52.304 134.895 86.218 170.333 86.218 170.334 86.217 176.25 102.272 179.5 94.702 189.452 104.913 194.729 99.636 184.453 89.747" fill="#fff"/><polygon points="55.258 232.902 55.258 292.636 72.326 287.531 113.657 300.312 110.201 327.984 208.351 327.984 208.351 232.902 55.258 232.902" fill="#fff"/><polygon points="197.795 515.064 179.986 525.42 190.723 538.097 177.172 527.918 145.965 568.974 143.598 568.678 144.438 570.165 223.013 570.165 223.013 587.518 218.163 587.518 217.663 597.518 240.75 596.167 240.75 523.808 197.795 515.064" fill="#f6e8d5"/><polygon points="501.063 403.253 402.114 362.297 384.857 386.905 324.828 386.905 306.26 362.298 192.965 401.885 143.148 529.19 149.577 537.103 149.577 540.963 152.041 542.687 151.247 542.131 160.2 536.925 150.152 546.629 174.216 523.388 179.309 524.62 179.986 525.42 197.795 515.064 240.75 523.808 240.75 472.984 251.891 461.842 458.602 461.842 469.743 472.985 469.743 519.489 537.399 510.085 579.183 546.288 580.692 546.268 501.063 403.253" fill="#98b7ff"/><path d="M110.405,546.639l-1.945-3.852,2.603-1.9-.325-4.206,19.459-23.43,19.381,23.853v3.86l2.464,1.725-1.889,3.942,24.064-23.242,5.092,1.232,11.414,13.478-13.551-10.18-31.207,41.056-13.98-1.749v-1.215l-3.677,.009,.082,1.396-13.961,1.069-47.327-63.048,43.303,41.202Z" fill="#eafaeb"/><polygon points="579.348 546.431 537.399 510.085 469.743 519.489 469.743 581.471 546.279 593.02 579.348 546.431" fill="#f6e8d5"/><path d="M458.602,461.842H251.891l-11.141,11.142v138.029h228.993v-138.028l-11.141-11.143Z" fill="#fff"/><polygon points="324.828 386.905 384.857 386.905 400.151 365.097 393.903 345.625 367.229 372.191 342.321 372.191 314.841 344.823 308.75 365.598 324.828 386.905" fill="#f6e8d5"/><path d="M397.202,243.017c-.996-3.011-3.982-4.898-7.129-4.505l-34.962,4.369-33.58-4.373c-3.035-.395-5.946,1.334-7.051,4.188l-13.241,34.193v45.524h.003l.01-31.573,18.705,27.702c1.5,2.221,4.382,3.037,6.823,1.932l19.796-8.959,8.201,4.168,8.2-4.168,19.796,8.959c2.441,1.103,5.321,.287,6.82-1.932l18.709-27.702,.013-14.236-11.112-33.589Z" fill="#f6e8d5"/><path d="M333.204,323.914l7.493,8.382v-.002c1.116,1.249,2.72,1.952,4.395,1.927l20.424-.287c1.752-.025,3.399-.843,4.477-2.225l6.205-7.955h-26.771l-16.223,.159Z" fill="#f6e8d5"/><path d="M382.772,320.476l-19.797-8.96-8.2,4.168-8.201-4.168-19.796,8.96c-2.441,1.104-5.324,.288-6.823-1.932l-18.705-27.702-.013,40.434,41.084,40.916h24.908l41.081-40.916-.01-40.434-18.71,27.702c-1.499,2.219-4.38,3.036-6.82,1.932Zm-42.075,11.821l-7.494-8.382,16.223-.159h26.771l-6.205,7.955c-1.078,1.382-2.725,2.2-4.477,2.225l-20.424,.287c-1.675,.025-3.278-.678-4.395-1.927v.002Z" fill="#665c56"/><path d="M397.202,243.017c-.996-3.011-3.982-4.898-7.129-4.505l-34.962,4.369-33.58-4.373c-3.035-.395-5.946,1.334-7.051,4.188l-13.241,34.193v45.524h.003l.01-31.573,18.705,27.702c1.5,2.221,4.382,3.037,6.823,1.932l19.796-8.959,8.201,4.168,8.2-4.168,19.796,8.959c2.441,1.103,5.321,.287,6.82-1.932l18.709-27.702,.008,31.575,.005-.002v-45.809l-11.112-33.589Z" fill="#f6e8d5"/><path d="M301.237,276.893l13.242-34.196c1.105-2.854,4.017-4.583,7.051-4.188l33.58,4.373,34.962-4.369c3.147-.393,6.133,1.493,7.129,4.505l11.113,33.589,7.69-33.563-5-33.515-7.326,3.864-9.604-35.476-9.898,13.697,3.949-16.509-43.522,23.035,5.559-13.901-38.629,22.125-1.941-4.359-3.458,30.08-7.375-7.25,2.476,52.059Z" fill="#665c56"/><path d="M343.449,264.542l.013,4.089c.006,1.724-1.387,3.126-3.11,3.131-.007,0-.014,0-.021,0l-20.393-.062-8.85,5.172,7.557-12.179,24.805-.151Z" fill="#665c56"/><path d="M366.133,264.547l-.014,4.08c-.006,1.728,1.389,3.133,3.117,3.14,.007,0,.015,0,.022,0l20.383-.068,8.848,5.172-7.553-12.178-24.804-.147Z" fill="#665c56"/><rect x="75.73" y="587.518" width="141.933" height="17.352" fill="#fff"/><rect x="80.319" y="570.165" width="142.694" height="17.352" fill="#eafaeb"/><circle cx="61.982" cy="239.647" r="2.212" fill="#232639"/><circle cx="68.737" cy="239.647" r="2.212" fill="#232639"/><circle cx="75.492" cy="239.647" r="2.212" fill="#232639"/><path d="M73.201,260.251l3.649,1.386v1.502l-5.176-2.307v-1.193l5.176-2.3v1.502l-3.649,1.41Z" fill="#333230"/><path d="M78.915,264.927h-1.181l3.543-9.777h1.181l-3.543,9.777Z" fill="#333230"/><path d="M87.344,260.22l-3.822-1.403v-1.478l5.343,2.3v1.193l-5.343,2.301v-1.478l3.822-1.436Z" fill="#333230"/><path d="M168.585,302.631l3.649,1.386v1.502l-5.176-2.307v-1.193l5.176-2.3v1.502l-3.649,1.41Z" fill="#333230"/><path d="M174.299,307.307h-1.181l3.543-9.777h1.181l-3.543,9.777Z" fill="#333230"/><path d="M182.728,302.6l-3.822-1.403v-1.478l5.343,2.3v1.193l-5.343,2.301v-1.478l3.822-1.436Z" fill="#333230"/><rect x="102.938" y="261.843" width="58.261" height="4.72" fill="#cadaed"/><rect x="128.249" y="275.464" width="64.034" height="5.411" fill="#cadaed"/><rect x="173.039" y="289.599" width="19.243" height="5.385" fill="#dfecfc"/><rect x="167.948" y="261.843" width="24.335" height="4.72" fill="#cadaed"/><rect x="150.535" y="304.168" width="9.731" height="5.337" fill="#cadaed"/><rect x="71.492" y="275.464" width="49.393" height="5.411" fill="#dfecfc"/><rect x="115.815" y="289.599" width="49.393" height="5.385" fill="#cadaed"/><rect x="248.6" y="49.077" width="13.515" height="25.948" fill="#fff"/><rect x="279.588" y="16.385" width="13.515" height="58.64" fill="#fff"/><path d="M309.651,74.023h-15.549V16.385c0-.553-.448-1-1-1h-13.515c-.552,0-1,.447-1,1v57.639h-15.473v-24.947c0-.553-.448-1-1-1h-13.515c-.552,0-1,.447-1,1v24.947h-14.189c-.552,0-1,.448-1,1s.448,1,1,1h76.24c.552,0,1-.448,1-1.001s-.448-1-1-1Zm-29.063-56.639h11.515v56.639h-11.515V17.385Zm-30.987,32.692h11.515v23.947h-11.515v-23.947Z" fill="#232639"/><path d="M271.289,2.108c-.252-.253-.621-.352-.966-.259l-14.408,3.862c-.534,.143-.85,.691-.707,1.225,.143,.534,.692,.852,1.225,.707l10.54-2.826-32.213,32.214c-.391,.391-.391,1.023,0,1.414,.195,.195,.451,.293,.707,.293s.512-.098,.707-.293L268.72,5.899l-2.967,11.065c-.143,.533,.173,1.082,.707,1.225,.086,.023,.174,.034,.259,.034,.441,0,.846-.294,.965-.741l3.863-14.407c.093-.345-.006-.713-.259-.966Z" fill="#232639"/><path d="M148.757,67.734c-3.059,0-5.548-2.488-5.548-5.548s2.489-5.548,5.548-5.548,5.548,2.488,5.548,5.548-2.489,5.548-5.548,5.548Zm0-9.096c-1.956,0-3.548,1.592-3.548,3.548s1.592,3.548,3.548,3.548,3.548-1.592,3.548-3.548-1.592-3.548-3.548-3.548Z" fill="#232639"/><circle cx="530.139" cy="177.809" r="2.074" fill="#232639"/><circle cx="536.47" cy="177.809" r="2.074" fill="#232639"/><circle cx="542.802" cy="177.809" r="2.074" fill="#232639"/><rect x="546.427" y="248.4" width="34.106" height="19.926" fill="#eee0fa"/><path d="M580.534,269.327h-34.106c-.552,0-1-.447-1-1v-19.927c0-.553,.448-1,1-1h34.106c.552,0,1,.447,1,1v19.927c0,.553-.448,1-1,1Zm-33.106-2h32.106v-17.927h-32.106v17.927Z" fill="#232639"/><rect x="593.02" y="248.4" width="34.106" height="19.926" fill="#eee0fa"/><path d="M627.126,269.327h-34.106c-.552,0-1-.447-1-1v-19.927c0-.553,.448-1,1-1h34.106c.552,0,1,.447,1,1v19.927c0,.553-.448,1-1,1Zm-33.106-2h32.106v-17.927h-32.106v17.927Z" fill="#232639"/><rect x="639.613" y="248.4" width="34.106" height="19.926" fill="#eee0fa"/><path d="M673.719,269.327h-34.106c-.552,0-1-.447-1-1v-19.927c0-.553,.448-1,1-1h34.106c.552,0,1,.447,1,1v19.927c0,.553-.448,1-1,1Zm-33.106-2h32.106v-17.927h-32.106v17.927Z" fill="#232639"/><rect x="661.153" y="190.737" width="20.254" height="2.146" fill="#232639"/><rect x="635.729" y="190.737" width="20.254" height="2.146" fill="#232639"/><rect x="610.306" y="190.737" width="20.254" height="2.146" fill="#232639"/><rect x="482.612" y="230.01" width="46.907" height="85.7" rx="6.014" ry="6.014" fill="#fff"/><rect x="482.612" y="230.01" width="46.907" height="85.7" rx="6.014" ry="6.014" fill="#fff"/><path d="M525.317,230.01h-38.501c-2.47,.149-4.352,2.272-4.204,4.742v6.333h0v31.043h46.908v-31.048h0v-6.333c.169-2.445-1.677-4.564-4.122-4.733-.027-.002-.054-.004-.082-.005Z" fill="#eee0fa"/><rect x="488.056" y="235.38" width="8.661" height="1.219" fill="#232639"/><rect x="488.056" y="240.836" width="8.661" height="1.219" fill="#232639"/><rect x="488.056" y="238.108" width="8.661" height="1.219" fill="#232639"/><path d="M523.726,284.281h-15.412c-.552,0-1-.447-1-1s.448-1,1-1h15.412c.552,0,1,.447,1,1s-.448,1-1,1Z" fill="#232639"/><path d="M516.269,289.245h-7.955c-.552,0-1-.447-1-1s.448-1,1-1h7.955c.552,0,1,.447,1,1s-.448,1-1,1Z" fill="#232639"/><rect x="488.056" y="280.208" width="15.727" height="10.421" fill="#eee0fa"/><path d="M503.783,291.629h-15.727c-.552,0-1-.447-1-1v-10.421c0-.553,.448-1,1-1h15.727c.552,0,1,.447,1,1v10.421c0,.553-.448,1-1,1Zm-14.727-2h13.727v-8.421h-13.727v8.421Z" fill="#232639"/><path d="M523.726,301.035h-15.412c-.552,0-1-.447-1-1s.448-1,1-1h15.412c.552,0,1,.447,1,1s-.448,1-1,1Z" fill="#232639"/><path d="M516.269,305.999h-7.955c-.552,0-1-.447-1-1s.448-1,1-1h7.955c.552,0,1,.447,1,1s-.448,1-1,1Z" fill="#232639"/><rect x="488.056" y="296.962" width="15.727" height="10.421" fill="#eee0fa"/><path d="M503.783,308.383h-15.727c-.552,0-1-.447-1-1v-10.421c0-.553,.448-1,1-1h15.727c.552,0,1,.447,1,1v10.421c0,.553-.448,1-1,1Zm-14.727-2h13.727v-8.421h-13.727v8.421Z" fill="#232639"/><path d="M549.18,146.08l-23.435-18.393-16.981-63.521c-.003-.026-.018-.047-.023-.072v-.007l-.006-.011c-.024-.11-.061-.212-.119-.303-.008-.014-.021-.024-.031-.037-.052-.074-.106-.147-.177-.205-.148-.127-.334-.201-.536-.224-.042-.006-.08-.024-.122-.025-.043,0-.078,.023-.12,.029-.087,.011-.17,.027-.249,.06-.043,.018-.079,.041-.118,.065-.08,.046-.15,.102-.214,.168-.013,.014-.033,.021-.046,.036-.012,.014-.018,.032-.029,.047-.036,.046-.065,.095-.093,.148-.023,.044-.042,.089-.058,.136-.01,.031-.03,.056-.037,.088l-14.886,62.438-17.079,12.331c-.283,.204-.438,.541-.412,.889,.027,.348,.233,.656,.544,.813l9.939,5.043-2.485,3.654c-.2,.294-.229,.672-.076,.992,.153,.321,.464,.537,.819,.566l16.539,1.396c.028,.003,.057,.004,.085,.004,.267,0,.509-.11,.69-.285l.008-.005,6.107-6.023,1.734,3.114c.175,.314,.506,.511,.866,.514,.361-.047,.694-.188,.874-.501l2.576-4.469,12.348,5.796c.167,.078,.353,.108,.534,.089l23.158-2.553c.404-.045,.741-.329,.852-.72,.112-.391-.024-.811-.344-1.062Zm-26.054-20.448l-2.054-1.613-5.423-26.357,7.478,27.97Zm-22.104,22.914l2.471-26.879c.023-.095,.032-.19,.026-.286l3.593-39.091,1.122,59.137-1.448,1.434-5.765,5.686Zm-7.251-21.263v-.004l11.714-49.135-3.948,42.957-9.25,13.602,1.485-7.42Zm18.888,15.035l-.006-.004-.115-.053-2.308-1.085-1.252-66.013,14.904,72.432-11.223-5.277Zm-35.335-2.831l13.986-10.098-1.913,9.563-3.368,4.952-8.705-4.417Zm23.834-14.273l-2.288,24.891-13.845-1.169,16.132-23.722Zm8.046,21.257l-1.145-2.056,.292-.29,1.103-1.088,1.36,.638-1.611,2.795Zm16.872,1.87l-4.377-21.271,2.557,2.024c.062,.049,.127,.089,.196,.121l21.566,16.927-19.942,2.199Z" fill="#232639"/><path d="M345.106,335.222l20.424-.287c2.065-.03,3.979-.98,5.251-2.609l6.205-7.955c.235-.302,.278-.711,.11-1.054-.167-.344-.516-.562-.898-.562h-26.781l-16.223,.159c-.393,.004-.747,.237-.905,.596-.158,.359-.092,.778,.169,1.07l7.493,8.383c.015,.018,.031,.034,.047,.05,1.286,1.408,3.102,2.21,5.008,2.21,.033,0,.066,0,.099,0Zm-3.707-3.64l-5.979-6.689,14.007-.138h24.723l-4.944,6.34c-.897,1.148-2.247,1.818-3.703,1.84l-20.424,.287c-1.387-.019-2.711-.561-3.635-1.595-.014-.016-.028-.03-.043-.045Z" fill="#232639"/><path d="M390.158,280.249l-7.753-1.737c-.081-.019-.161-.023-.246-.024l-13.537,.371c-.552,.016-.987,.476-.972,1.027,.015,.553,.478,.98,1.027,.973l5.272-.145c-1.406,1-2.328,2.638-2.328,4.491,0,1.417,.542,2.707,1.424,3.685h-4.187c-.552,0-1,.447-1,1s.448,1,1,1h12.099c.136,0,.27-.027,.395-.081l7.216-3.098c.507-.218,.742-.806,.524-1.313-.218-.508-.807-.742-1.313-.524l-6.289,2.7c.723-.933,1.157-2.099,1.157-3.368,0-1.927-.995-3.623-2.497-4.609l3.38,.217,6.19,1.387c.074,.017,.147,.024,.22,.024,.458,0,.871-.316,.975-.781,.121-.539-.218-1.074-.757-1.194Z" fill="#232639"/><path d="M328.196,290.81l.007,.003c.11,.045,.224,.061,.336,.066,.015,0,.028,.009,.044,.009h12.594c.552,0,1-.449,1-1.001s-.448-1-1-1h-4.387c.91-.977,1.469-2.266,1.469-3.683,0-1.853-.953-3.492-2.406-4.492l5.516,.145c.584,.01,1.012-.422,1.026-.974,.015-.552-.421-1.012-.973-1.026l-14.089-.371c-.077,.005-.159,.006-.237,.022l-8.07,1.737c-.54,.116-.883,.648-.767,1.188,.101,.469,.516,.789,.977,.789,.07,0,.141-.007,.211-.022l7.953-1.712,2.131,.056c-1.598,.978-2.665,2.698-2.665,4.659,0,1.281,.458,2.458,1.217,3.395l-6.628-2.733c-.512-.208-1.095,.032-1.306,.544-.211,.51,.033,1.095,.543,1.306l7.5,3.093,.004,.002Z" fill="#232639"/><path d="M340.354,272.763c1.101-.004,2.134-.436,2.91-1.217s1.201-1.817,1.197-2.918l-.012-4.089c0-.266-.107-.521-.296-.707-.188-.186-.44-.29-.704-.29h-.006l-24.804,.151c-.344,.002-.663,.181-.844,.473l-7.557,12.179c-.242,.391-.188,.896,.133,1.225,.193,.199,.454,.303,.717,.303,.173,0,.347-.045,.504-.137l8.615-5.034,20.148,.062Zm-20.922-1.926l-5.371,3.139,5.142-8.285,23.249-.143,.009,3.086c.002,.567-.217,1.101-.616,1.503-.399,.401-.931,.624-1.512,.626l-20.393-.062c-.155-.01-.354,.046-.507,.137Z" fill="#232639"/><path d="M369.261,272.767l20.111-.066,8.612,5.034c.158,.092,.332,.137,.504,.137,.263,0,.523-.104,.717-.302,.321-.329,.375-.835,.133-1.226l-7.553-12.178c-.181-.292-.5-.471-.844-.473l-24.804-.146c-.287,.042-.521,.103-.709,.29-.189,.187-.295,.441-.296,.707l-.014,4.079c-.004,1.103,.421,2.142,1.198,2.924,.777,.783,1.812,1.216,2.944,1.22Zm-2.132-7.214l23.249,.138,5.138,8.284-5.37-3.139c-.153-.09-.328-.137-.505-.137h-.003l-20.399,.067c-.568-.002-1.102-.226-1.502-.629-.4-.403-.62-.938-.618-1.508l.01-3.077Z" fill="#232639"/><path d="M353.957,522.146c-7.087,0-12.853,5.766-12.853,12.853s5.766,12.853,12.853,12.853,12.853-5.766,12.853-12.853-5.766-12.853-12.853-12.853Zm0,23.705c-5.984,0-10.853-4.868-10.853-10.853s4.869-10.853,10.853-10.853,10.853,4.868,10.853,10.853-4.869,10.853-10.853,10.853Z" fill="#232639"/><path d="M504.656,624.707h-80.253c-.552,0-1,.448-1,1.001s.448,1,1,1h80.253c.552,0,1-.448,1-1.001s-.448-1-1-1Z" fill="#232639"/><path d="M645.77,583.444h-90.242l25.975-36.596c.005-.008,.006-.017,.011-.024,.013-.019,.03-.035,.042-.055,.106-.183,.142-.39,.123-.594l-.006-.05c-.017-.119-.048-.235-.108-.343l-79.629-143.016c-.109-.197-.283-.352-.491-.438l-98.949-40.956c-.433-.18-.932-.034-1.201,.35l-.807,1.151-5.446-16.972,13.974-13.918c.188-.188,.294-.443,.294-.709l-.003-14.185h.006v-40.373l7.665-33.452c.028-.122,.033-.248,.015-.371l-5-33.515c-.048-.32-.249-.599-.538-.745-.29-.146-.632-.145-.918,.008l-6.221,3.28-9.278-34.27c-.101-.372-.406-.652-.786-.722-.38-.071-.764,.086-.99,.397l-6.94,9.604,2.774-11.597c.091-.382-.049-.782-.36-1.022-.312-.24-.734-.278-1.081-.094l-41.114,21.76,4.548-11.371c.158-.395,.048-.847-.272-1.126-.322-.279-.786-.322-1.153-.113l-37.668,21.575-1.491-3.348c-.184-.412-.615-.648-1.065-.582-.445,.068-.79,.426-.842,.874l-3.224,28.046-5.915-5.814c-.294-.289-.732-.367-1.11-.2-.375,.168-.61,.55-.59,.961l2.477,52.059v39.097h.005l-.005,15.238c0,.266,.106,.521,.294,.709l13.182,13.128-5.363,18.295-1.292-1.712c-.262-.346-.717-.48-1.128-.342l-113.296,39.587c-.275,.097-.495,.309-.601,.58l-49.305,125.997-12.043-14.889c-.188-.233-.472-.369-.772-.371-.307,.021-.585,.132-.776,.362l-19.372,23.423c-.165,.2-.247,.456-.227,.714v.008l.279,3.646-2.142,1.57c-.179,.131-.302,.312-.364,.511l-39.525-37.776c-.376-.36-.965-.371-1.354-.026-.389,.346-.449,.931-.138,1.348l47.114,63.047c.023,.031,.052,.054,.078,.081h-32.634c-.268,0-.524,.107-.712,.299-.12,.121-.19,.273-.235,.435-.051,.078-.088,.167-.088,.268v13.279H2.55c-.552,0-1,.448-1,1.001s.448,1,1,1H79.819v1.072h-4.089c-.552,0-1,.447-1,1v17.353c0,.366,.207,.673,.5,.847v2.365c0,.276,.224,.5,.5,.5H217.663c.276,0,.5-.224,.5-.5v-2.365c.293-.174,.5-.48,.5-.847v-6.409l21.087-1.234v13.786c0,.553,.448,1,1,1h228.993c.552,0,1-.447,1-1h0v-27.367l75.846,11.445c.05,.007,.1,.011,.149,.011,.321,0,.626-.154,.815-.421l6.555-9.235h91.661c.552,0,1-.448,1-1.001s-.448-1-1-1Zm-95.535,4.002l-79.492-10.279v-57.818l66.656-9.265,40.646,35.218h0l1.302,1.128-.613,.863h0l-28.499,40.153Zm-247.998-310.369l13.174-34.019c.941-2.431,3.406-3.887,5.99-3.559l33.579,4.373c.084,.013,.17,.012,.253,0l34.962-4.37c2.667-.333,5.212,1.276,6.056,3.827l11.062,33.435v13.751l-18.551,27.466c-1.231,1.82-3.578,2.484-5.58,1.581l-19.796-8.959c-.275-.125-.595-.118-.865,.02l-7.747,3.937-7.748-3.937c-.271-.138-.59-.146-.865-.02l-19.795,8.959c-2.002,.905-4.352,.241-5.583-1.581l-18.546-27.466v-13.44Zm-2.357-49.74l5.554,5.46c.273,.269,.674,.358,1.035,.229,.36-.127,.616-.448,.66-.828l3.039-26.443,.452,1.015c.115,.259,.334,.456,.603,.544,.267,.087,.562,.057,.808-.082l36.137-20.698-4.493,11.234c-.156,.39-.052,.834,.26,1.115,.312,.279,.766,.336,1.136,.14l41.566-21.999-3.435,14.357c-.111,.464,.122,.942,.556,1.142,.434,.198,.948,.063,1.228-.323l8.67-11.998,9.057,33.452c.08,.293,.288,.534,.566,.655,.278,.121,.597,.108,.865-.032l6.079-3.206,4.763,31.934-6.848,29.889-9.988-30.19c-1.042-3.15-4.005-5.241-7.259-5.241-.312,0-.627,.02-.944,.059l-34.836,4.354-33.453-4.356c-3.502-.459-6.838,1.525-8.113,4.818l-11.535,29.788-2.131-44.787Zm2.369,66.771l16.877,24.994c1.778,2.634,5.17,3.59,8.064,2.284l19.358-8.761,7.772,3.949c.285,.145,.621,.145,.906,0l7.771-3.949,19.359,8.761c2.893,1.307,6.284,.349,8.061-2.284l16.882-24.995,.009,36.753-40.495,40.331h-24.082l-40.497-40.331,.012-36.752Zm13.077,52.61l26.289,26.182c.188,.187,.441,.291,.706,.291h24.908c.265,0,.518-.104,.706-.291l25.515-25.413,5.596,17.442-14.709,20.976h-59.012l-15.474-20.508,5.475-18.678Zm8.702,40.789c.189,.25,.484,.397,.798,.397h60.03c.326,0,.631-.159,.819-.426l16.796-23.952,7.844,3.247-19.398,32.576h-72.647l-20.343-33.083,7.973-2.786,18.128,24.025Zm-130.301,15.169l102.268-35.733,20.865,33.931c.182,.296,.505,.477,.852,.477h73.774c.353,0,.679-.186,.859-.488l19.838-33.315,88.174,36.497,58.039,104.239-13.405-12.052c-.41-.369-1.043-.336-1.412,.074-.369,.411-.335,1.043,.075,1.412l17.739,15.948,15.667,28.137-38.695-33.527c-.218-.189-.507-.277-.792-.234l-66.831,9.289v-5.207l26.841-8.463c.527-.166,.819-.729,.653-1.255-.166-.526-.728-.816-1.254-.653l-26.239,8.273v-37.041c0-.266-.105-.52-.293-.707l-11.141-11.144c-.188-.188-.442-.293-.707-.293H251.891c-.265,0-.52,.105-.707,.293l-11.141,11.143c-.188,.188-.293,.441-.293,.707v41.011l-31.35-12.22c-.517-.202-1.095,.054-1.295,.568-.201,.515,.054,1.095,.568,1.295l32.076,12.504v6.441l-41.755-8.5c-.242-.051-.491-.009-.702,.115l-17.432,10.136-.298-.353c-.137-.162-.322-.277-.528-.327l-5.066-1.231c-.334-.082-.686,.015-.933,.254l-14.481,14.048-7.451,4.333-.292-.178-.61-.428v-3.341c0-.229-.079-.451-.223-.629l-5.803-7.175,49.552-126.63Zm46.022,187.135l-21.087,1.117v-2.411h4.354c.552,0,1-.447,1-1v-17.353c0-.553-.448-1-1-1h-76.301l17.513-23.145,12.673-16.676,12.658,9.559c.405,.308,.978,.261,1.329-.11,.105-.111,.17-.242,.215-.379,.152-.182,.157-.446,.006-.632-.039-.115-.1-.225-.182-.323l-9.757-11.572,16.799-9.769,41.781,8.505v65.187Zm-90.077-47.283l.714,.501-1.516,3.179c-.037,.077-.05,.159-.066,.239l-.003,.007-.002,.009c-.007,.038-.018,.074-.021,.112l-1.336,7.12-15.99,7.58-.181-29.979,18.4,11.232Zm-16.931,20.348l14.246-6.753-.894,4.763c-.059,.1-.108,.207-.129,.322l-1.246,6.645-12.029-1.511v-.276l.053-3.19Zm44.732-35.606c-.037-.042-.061-.092-.106-.129-.222-.182-.499-.245-.765-.21-.278,.02-.546,.145-.728,.383l-.3,.396-24.552,27.597-.227-8.268,23.235-22.54,4.212,1.023,5.403,6.407-6.172-4.66Zm-50.585,35.481l.141,3.311v.016l.024,.416-12.006,.923-2.217-12.032,14.058,7.366Zm-17.985-3.04l-33.816-45.252,34.105,32.603-.289,12.649Zm20.996-44.874l18.3,22.628v1.82l-17.169-10.481c-.171-.178-.389-.28-.627-.3-.027-.005-.052-.007-.08-.01-.022-.001-.04-.013-.062-.013h-.006c-.017,0-.031,.009-.049,.01-.013,.002-.026,.006-.039,.008l-.008,.002c-.099,.006-.193,.024-.286,.059l-.016,.007c-.125,.05-.235,.124-.333,.222l-17.793,10.416-.169-2.192,18.335-22.176Zm-18.45,26.863c.011-.008,.019-.02,.03-.028l17.793-10.415,.204,33.759h-.49l-.112-2.637c.097-.431-.083-.889-.493-1.104l-16.011-8.39-1.184-6.43c-.006-.034-.026-.06-.036-.092-.017-.059-.024-.118-.052-.174l-1.555-3.091,1.906-1.397Zm16.737,26.712c.543-.042,.954-.511,.922-1.056l-.02-.341,1.6-.004v.216c0,.504,.375,.93,.875,.992l7.522,.943h-20.67l9.77-.751Zm-46.223,6.616l80.853-3.864h59.199v15.353H81.965v-11.488Zm134.698,28.552l-51.455,.289H76.73v-15.353H216.663v15.063Zm252.081-1.139H241.75v-129.043l10.555-10.557h205.883l10.555,10.558v129.042Z" fill="#232639"/><path d="M81.191,321.921l-11.823,12.814-5.92-6.226c-.38-.398-1.014-.414-1.414-.035-.4,.381-.417,1.014-.036,1.414l6.656,7c.007,.007,.017,.01,.024,.017,.009,.009,.012,.021,.021,.029,.062,.057,.136,.09,.208,.129,.034,.018,.062,.046,.098,.061,.12,.048,.246,.075,.372,.075h.001c.129,0,.257-.028,.379-.078,.037-.015,.066-.045,.101-.064,.072-.04,.147-.074,.209-.133,.009-.009,.012-.021,.021-.03,.007-.007,.017-.01,.024-.017l12.548-13.6c.375-.405,.349-1.038-.057-1.413-.406-.373-1.039-.349-1.413,.058Z" fill="#232639"/><path d="M208.346,231.902H55.256c-.55,0-1,.45-1,1v58.99l-24.95,7.46c-.05,.02-.09,.05-.13,.07-.06,.02-.11,.04-.16,.08-.07,.05-.12,.11-.18,.17-.02,.03-.05,.05-.07,.08-.01,0-.01,.01-.01,.02-.07,.1-.12,.21-.14,.34-.01,.05,0,.1-.01,.15,0,.07-.01,.13,0,.2l7.44,48.56v.01c0,.01,.01,.02,.01,.03,.02,.11,.06,.21,.12,.31,.01,.01,.01,.02,.02,.04,0,.01,.01,.02,.02,.03s.02,.03,.02,.04l1.45,1.9,33.85,44.17c.01,.01,.03,.02,.04,.04,.07,.07,.14,.12,.22,.17,.04,.03,.07,.06,.12,.08,.11,.05,.23,.08,.35,.08,.02,.01,.04,.02,.06,.02s.04-.02,.07-.02c.12-.01,.23-.03,.34-.08,.05-.02,.08-.05,.12-.08,.08-.05,.15-.1,.22-.17,.01-.02,.03-.03,.04-.04l35.27-46.07c.01-.02,.02-.03,.03-.05,0-.01,.01-.01,.02-.02s.01-.03,.01-.04c.06-.09,.1-.19,.12-.3,0-.02,.01-.03,.01-.05,0-.01,.01-.02,.01-.03l2.5-20.01h97.26c.56,0,1-.45,1-1v-95.08c0-.55-.44-1-1-1Zm-152.09,2H207.346v11.3H56.256v-11.3Zm0,13.3H207.346v79.78H111.336l3.31-26.55c.01-.09,0-.19-.01-.28-.01-.02,0-.04-.01-.06-.02-.13-.08-.24-.15-.34,0-.01,0-.02-.01-.02-.01-.03-.04-.04-.06-.07-.06-.06-.12-.12-.19-.17-.05-.03-.1-.05-.15-.08-.04-.01-.07-.04-.11-.06l-41.33-12.78c-.1-.03-.2-.04-.3-.04h-.03c-.08,.01-.17,.02-.26,.04l-15.78,4.72v-44.09Zm55.17,53.47l-19.92,14.2c-4.22-5.55-10.77-9.22-18.18-9.52v-16.47l38.1,11.79Zm-40.1-11.8v16.48c-7.44,.31-14.03,4-18.23,9.59l-21.19-14.28,39.42-11.79Zm-40.4,13.54l21.03,14.18c-2.34,3.71-3.7,8.1-3.7,12.81,0,3.48,.75,6.78,2.08,9.77l-12.55,8.03-6.86-44.79Zm40.4,89.58l-32.84-42.87,12.74-8.14c3.95,7.16,11.44,12.11,20.1,12.46v38.55Zm1-40.52h-.01c-12.16,0-22.06-9.91-22.06-22.07s9.9-22.08,22.07-22.08,22.07,9.91,22.07,22.08-9.9,22.07-22.07,22.07Zm1,40.52v-38.55c8.65-.35,16.14-5.3,20.09-12.46l12.72,8.14-32.81,42.87Zm33.47-44.82l-12.48-7.99c1.33-2.99,2.08-6.3,2.08-9.78,0-4.74-1.38-9.16-3.75-12.89l19.74-14.07-5.59,44.73Z" fill="#232639"/><path d="M133.404,209.991l2.011,2.317-2.011,2.315-2.018-2.315,2.018-2.317Zm11.259-12.939l-2.011,2.316,2.011,2.317,2.011-2.317-2.011-2.316Zm-11.259,0l-2.011,2.317,2.011,2.316,2.011-2.316-2.011-2.317Zm20.506,15.255l2.011,2.316,2.018-2.316-2.018-2.316-2.011,2.316Zm-18.494,12.94l-2.011-2.317-2.018,2.317,2.018,2.315,2.011-2.315Zm7.237,0l2.011,2.316,2.011-2.316-2.011-2.316-2.011,2.316Zm34.765,1.23c-.203-.579-.419-1.152-.642-1.722l-.427,.492,1.069,1.23Zm-10.317-11.854l2.011-2.316-2.011-2.316-2.011,2.316,2.011,2.316Zm-22.437-4.632l-2.011,2.316,2.011,2.316,2.011-2.316-2.011-2.316Zm9.247-10.623l2.011,2.317,1.219-1.405c-.85-.571-1.722-1.11-2.605-1.632l-.625,.72Zm15.202,25.878l-2.011-2.316-2.011,2.316,2.011,2.316,2.011-2.316Zm-13.19-2.316l-2.011,2.316,2.011,2.316,2.018-2.316-2.018-2.316Zm-56.29-21.244l2.011-2.317-.531-.612c-.881,.525-1.749,1.069-2.596,1.643l1.116,1.286Zm-2.017,10.622l2.011,2.315,2.019-2.315-2.019-2.317-2.011,2.317Zm4.03,12.939l-2.019-2.317-2.011,2.317,2.011,2.315,2.019-2.315Zm-11.265,0l-2.011-2.317-2.011,2.317,2.011,2.315,2.011-2.315Zm31.77-15.256l-2.011,2.317,2.011,2.315,2.011-2.315-2.011-2.317Zm-33.781,4.632l2.011-2.315-2.011-2.317-2.011,2.317,2.011,2.315Zm33.781-17.571l-2.011,2.317,2.011,2.316,2.011-2.316-2.011-2.317Zm-2.011,28.194l2.011,2.315,2.011-2.315-2.011-2.317-2.011,2.317Zm-9.252-28.194l-2.011,2.317,2.011,2.316,2.011-2.316-2.011-2.317Zm0,12.939l-2.011,2.317,2.011,2.315,2.011-2.315-2.011-2.317Zm-2.011,15.256l2.011,2.315,2.011-2.315-2.011-2.317-2.011,2.317Z" fill="#232639"/><polygon points="114.168 304.284 113.502 309.621 142.396 309.621 142.396 304.284 114.168 304.284" fill="#cadaed"/><polygon points="99.811 294.984 108.267 294.984 108.267 289.599 82.397 289.599 99.811 294.984" fill="#e6e8fc"/><path d="M207.146,64.142h-28.1v-11.84c0-.55-.45-1-1-1h-43.15c-.55,0-1,.45-1,1v11.84h-15.05c-.56,0-1,.45-1,1v52.18c0,.55,.44,1,1,1h88.3c.55,0,1-.45,1-1v-52.18c0-.55-.45-1-1-1Zm-29.43,18.06l11.69,4.31-5.35,2.32c-.31,.13-.53,.41-.59,.74-.06,.33,.05,.66,.29,.9l9.54,9.18-3.83,3.84-9.25-9.49c-.19-.19-.45-.3-.72-.3-.06,0-.12,.01-.18,.02-.33,.06-.6,.28-.73,.59l-2.27,5.26-7.62-20.7,8.93,3.29c.03,.02,.06,.03,.09,.04Zm-41.82-28.9h41.15v20.08l-11.35-10.97c-.2-.19-.46-.29-.72-.28-.27,.01-.53,.12-.71,.32l-13.27,14.22-4.3-5.14c-.17-.22-.43-.35-.71-.36-.27-.02-.55,.08-.75,.28l-9.34,8.98v-27.13Zm0,29.91l9.96-9.58,4.33,5.19c.18,.22,.45,.35,.74,.36s.56-.11,.75-.31l13.36-14.31,12.01,11.6v3.66l-9.69-3.58c-.37-.13-.78-.04-1.06,.24-.27,.27-.36,.68-.23,1.05l2.83,7.69h-33v-2.01Zm70.25,33.11H119.846v-50.18h14.05v20.08c0,.55,.45,1,1,1h34.74l5.68,15.4c.14,.38,.5,.64,.91,.65,.42,0,.78-.23,.94-.61l2.66-6.19,8.91,9.14c.19,.19,.44,.3,.71,.3h.01c.26,0,.52-.1,.7-.29l5.28-5.28c.19-.19,.3-.45,.29-.72,0-.26-.11-.52-.3-.71l-9.2-8.84,6.26-2.72c.37-.16,.61-.54,.6-.95-.01-.41-.27-.77-.65-.91l-13.39-4.93v-14.42h27.1v50.18Z" fill="#232639"/><path d="M696.895,172.671h-171.459c-.552,0-1,.447-1,1v55.339h-35.81c-.012,0-.024,.002-.037,.002h-1.833c-3.017,.181-5.324,2.783-5.144,5.74v74.943c0,3.867,3.146,7.014,7.014,7.014h34.879c3.868,0,7.014-3.146,7.014-7.014v-30.077h166.376c.552,0,1-.447,1-1h0v-104.947c0-.553-.448-1-1-1Zm-213.284,63.353c0-2.765,2.25-5.014,5.014-5.014h34.879c2.765,0,5.014,2.249,5.014,5.014v35.104h-44.908v-35.104Zm212.284-35.895h-169.459v-17.357h169.459v17.357Zm-165.377,34.976v-.289c.183-2.65-1.577-4.991-4.06-5.634v-27.053h169.437v32.976h-165.376Zm.001,37.028v-35.028h165.376v40.513h-165.376v-5.484Zm165.376-97.462v6.101h-169.459v-6.101h169.459Zm-172.39,140.038h-34.879c-2.765,0-5.014-2.249-5.014-5.014v-36.567h44.908v36.567c0,2.765-2.25,5.014-5.014,5.014Z" fill="#232639"/></svg>